<svg id="svg" version="1.1" xmlns="http://www.w3.org/2000/svg" xmlns:xlink="http://www.w3.org/1999/xlink" width="400" height="266.6666666666667" viewBox="0, 0, 400,266.6666666666667"><g id="svgg"><path id="path0" d="M261.022 111.826 C 259.544 112.491,258.811 114.306,259.355 115.954 C 260.519 119.482,265.885 118.676,265.885 114.974 C 265.885 112.538,263.243 110.828,261.022 111.826 M126.091 112.229 C 111.113 116.290,110.420 140.131,125.126 145.469 C 135.296 149.161,145.313 141.442,145.313 129.914 L 145.313 128.385 137.760 128.385 L 130.208 128.385 130.208 130.990 L 130.208 133.594 134.766 133.594 C 137.272 133.594,139.323 133.665,139.323 133.752 C 139.323 133.839,138.969 134.652,138.536 135.560 C 135.325 142.287,124.871 142.292,121.626 135.567 C 118.490 129.070,120.554 120.847,125.991 118.170 C 130.078 116.159,136.818 117.976,137.899 121.382 C 138.053 121.867,144.271 122.193,144.271 121.716 C 144.271 121.117,142.320 118.097,141.064 116.753 C 137.061 112.468,131.454 110.774,126.091 112.229 M205.933 118.802 L 206.007 125.625 205.048 124.666 C 201.041 120.659,193.731 122.286,190.913 127.811 C 189.122 131.321,189.110 137.241,190.886 140.701 C 193.677 146.136,201.138 147.803,205.071 143.870 L 205.990 142.951 205.990 144.262 L 205.990 145.573 208.725 145.573 L 211.460 145.573 211.394 128.777 L 211.328 111.981 208.594 111.980 L 205.859 111.979 205.933 118.802 M216.180 128.758 L 216.267 145.573 223.172 145.571 C 230.632 145.569,232.727 145.360,234.806 144.413 C 241.028 141.578,241.300 132.368,235.249 129.389 L 233.540 128.548 234.281 128.011 C 240.366 123.596,239.495 115.011,232.717 112.606 C 231.568 112.198,230.308 112.119,223.737 112.038 L 216.093 111.944 216.180 128.758 M286.413 118.945 L 286.498 125.911 285.724 124.991 C 283.742 122.634,279.667 121.715,276.497 122.910 C 267.591 126.269,267.080 141.058,275.729 145.132 C 279.064 146.703,283.562 146.062,285.518 143.737 C 286.400 142.688,286.523 142.761,286.418 144.271 L 286.328 145.573 289.063 145.573 L 291.797 145.573 291.728 128.776 L 291.659 111.979 288.994 111.979 L 286.328 111.979 286.413 118.945 M230.682 117.578 C 233.089 119.028,233.503 122.975,231.450 124.909 C 230.210 126.078,229.228 126.302,225.352 126.302 L 221.875 126.302 221.875 121.591 L 221.875 116.880 225.846 116.969 C 229.257 117.045,229.940 117.131,230.682 117.578 M158.984 122.758 C 157.819 123.267,156.515 124.455,155.685 125.762 L 154.948 126.925 154.948 124.921 L 154.948 122.917 152.214 122.917 L 149.479 122.917 149.479 134.245 L 149.479 145.573 152.194 145.573 L 154.909 145.573 154.994 138.867 L 155.078 132.161 155.814 130.664 C 156.837 128.579,158.275 127.728,160.742 127.749 L 162.500 127.764 162.500 125.080 L 162.500 122.396 161.133 122.406 C 160.381 122.412,159.414 122.570,158.984 122.758 M171.053 122.759 C 161.825 126.055,161.116 141.134,169.995 145.260 C 173.278 146.785,177.640 146.022,179.661 143.569 L 180.469 142.590 180.469 144.081 L 180.469 145.573 183.073 145.573 L 185.677 145.573 185.677 134.245 L 185.677 122.917 183.073 122.917 L 180.469 122.917 180.469 124.397 L 180.469 125.877 179.250 124.659 C 177.212 122.620,173.712 121.809,171.053 122.759 M252.834 123.123 C 251.599 123.768,250.633 124.753,249.560 126.460 C 249.303 126.867,249.247 126.603,249.234 124.935 L 249.219 122.917 246.549 122.918 L 243.880 122.919 243.797 134.246 L 243.715 145.573 246.444 145.573 L 249.173 145.573 249.264 138.997 C 249.394 129.607,250.373 127.750,255.178 127.772 L 257.100 127.781 256.939 125.284 C 256.849 123.910,256.775 122.699,256.774 122.591 C 256.766 122.077,254.164 122.429,252.834 123.123 M302.411 122.935 C 295.991 125.462,293.760 135.600,298.223 141.962 C 301.416 146.515,308.425 147.463,311.538 143.763 C 312.503 142.616,312.578 142.730,312.450 145.166 C 312.138 151.119,305.277 153.839,302.386 149.156 L 301.862 148.307 299.239 148.390 C 296.302 148.482,296.350 148.432,297.283 150.404 C 300.715 157.658,312.524 157.766,316.355 150.578 C 317.538 148.358,317.630 147.074,317.505 134.440 L 317.391 122.917 314.790 122.917 L 312.189 122.917 312.280 124.219 C 312.329 124.935,312.357 125.521,312.341 125.521 C 312.325 125.521,311.892 125.124,311.377 124.639 C 309.117 122.507,305.326 121.787,302.411 122.935 M329.557 122.747 C 323.190 124.860,319.994 131.677,322.129 138.590 C 325.057 148.071,339.103 148.807,342.299 139.648 L 342.685 138.542 340.215 138.542 L 337.745 138.542 336.953 139.443 C 333.534 143.337,327.939 141.551,326.988 136.263 L 326.836 135.417 334.937 135.417 L 343.038 135.417 342.915 132.859 C 342.569 125.674,335.915 120.636,329.557 122.747 M259.921 134.245 L 259.985 145.573 262.675 145.573 L 265.365 145.573 265.365 140.146 C 265.365 137.162,265.287 132.064,265.193 128.818 L 265.021 122.917 262.439 122.917 L 259.856 122.917 259.921 134.245 M334.766 127.679 C 335.866 128.300,337.500 130.451,337.500 131.279 C 337.500 131.745,337.222 131.771,332.292 131.771 C 326.549 131.771,326.759 131.846,327.576 130.078 C 328.839 127.341,332.185 126.224,334.766 127.679 M176.125 127.623 C 180.661 128.883,182.021 136.242,178.319 139.493 C 173.427 143.788,167.111 136.990,170.212 130.768 C 171.471 128.240,173.830 126.986,176.125 127.623 M201.906 127.623 C 206.032 128.769,207.594 135.445,204.564 138.984 C 201.607 142.439,196.279 140.726,195.299 136.004 C 194.270 131.047,197.856 126.498,201.906 127.623 M283.103 128.010 C 286.809 129.927,287.595 136.447,284.473 139.374 C 281.500 142.161,276.872 140.749,275.666 136.687 C 273.980 131.011,278.564 125.663,283.103 128.010 M308.738 127.835 C 312.885 129.718,313.790 136.473,310.305 139.532 C 305.865 143.431,299.762 137.901,301.742 131.772 C 302.823 128.424,306.045 126.611,308.738 127.835 M230.058 131.239 C 234.282 132.219,234.942 137.855,231.056 139.756 C 229.710 140.415,229.298 140.479,225.736 140.580 L 221.875 140.689 221.875 135.840 L 221.875 130.990 225.456 130.996 C 227.425 130.999,229.496 131.109,230.058 131.239 " stroke="none" fill="#0c3b7c" fill-rule="evenodd"></path><path id="path1" d="M0.000 133.333 L 0.000 266.667 200.000 266.667 L 400.000 266.667 400.000 133.333 L 400.000 0.000 200.000 0.000 L 0.000 0.000 0.000 133.333 M74.887 96.373 C 95.620 99.257,108.207 123.135,100.021 144.053 C 93.246 161.366,75.342 169.553,59.072 162.780 C 33.214 152.015,32.168 111.768,57.422 99.277 C 60.427 97.791,63.471 96.853,67.188 96.267 C 68.585 96.047,72.978 96.108,74.887 96.373 M76.174 107.382 C 52.016 132.900,53.490 131.233,53.737 132.752 C 54.071 134.809,54.793 135.091,60.899 135.550 C 63.531 135.748,65.734 135.959,65.793 136.019 C 65.895 136.121,65.076 140.040,62.926 149.740 C 61.596 155.735,61.894 155.826,66.562 150.846 C 68.408 148.877,72.681 144.336,76.057 140.755 C 79.433 137.174,83.330 133.041,84.717 131.569 C 87.145 128.993,87.240 128.848,87.240 127.708 C 87.240 125.250,86.444 124.921,79.460 124.489 C 77.258 124.352,75.400 124.185,75.331 124.116 C 75.262 124.047,75.998 120.322,76.965 115.837 C 77.932 111.352,78.779 107.418,78.846 107.095 C 78.974 106.478,78.526 105.729,78.031 105.729 C 77.870 105.729,77.035 106.473,76.174 107.382 M264.245 111.969 C 267.521 113.966,265.451 119.299,261.806 118.254 C 259.751 117.665,258.982 116.576,259.178 114.532 C 259.426 111.953,262.046 110.628,264.245 111.969 M133.710 112.117 C 137.471 113.096,141.257 116.025,143.294 119.532 C 144.672 121.902,144.731 121.831,141.303 121.924 L 138.335 122.005 137.194 120.573 C 133.942 116.490,127.625 116.170,123.519 119.879 C 120.296 122.791,119.364 129.382,121.404 134.840 C 124.089 142.028,135.146 142.487,138.439 135.547 C 139.412 133.498,139.599 133.594,134.635 133.594 L 130.208 133.594 130.208 130.990 L 130.208 128.385 137.797 128.385 L 145.385 128.385 145.235 131.315 C 144.292 149.742,119.248 151.949,114.949 133.984 C 111.777 120.725,121.820 109.020,133.710 112.117 M211.459 128.711 L 211.459 145.703 208.725 145.621 L 205.990 145.539 205.990 144.362 L 205.990 143.185 204.797 144.235 C 199.479 148.915,190.904 144.810,189.578 136.950 C 187.762 126.183,197.728 118.059,204.960 124.410 L 205.859 125.200 205.770 118.841 C 205.660 110.984,205.356 111.719,208.716 111.719 L 211.458 111.719 211.459 128.711 M231.510 112.272 C 238.616 113.712,240.949 122.030,235.629 126.956 C 234.780 127.742,233.945 128.388,233.774 128.392 C 233.603 128.396,234.187 128.750,235.072 129.179 C 241.653 132.371,241.078 142.144,234.153 144.822 C 232.584 145.429,227.323 145.755,219.661 145.719 L 216.276 145.703 216.209 128.776 L 216.142 111.849 223.110 111.915 C 226.943 111.952,230.723 112.112,231.510 112.272 M291.792 128.520 C 291.898 137.771,291.926 145.400,291.853 145.473 C 291.781 145.546,290.508 145.615,289.025 145.627 L 286.328 145.648 286.248 144.429 L 286.169 143.211 284.991 144.248 C 280.084 148.567,271.768 145.198,269.932 138.147 C 267.063 127.133,277.736 117.545,285.202 124.430 L 286.328 125.468 286.247 118.623 L 286.167 111.778 288.882 111.739 L 291.598 111.699 291.792 128.520 M221.875 121.615 L 221.875 126.367 225.732 126.257 C 231.327 126.098,232.686 125.130,232.505 121.432 C 232.331 117.876,231.195 117.127,225.732 116.972 L 221.875 116.863 221.875 121.615 M162.656 125.130 L 162.789 127.995 160.581 127.995 C 158.127 127.995,157.424 128.316,156.318 129.941 C 155.257 131.499,155.124 132.443,155.015 139.193 L 154.910 145.703 152.195 145.703 L 149.481 145.703 149.480 134.310 L 149.479 122.917 152.214 122.917 L 154.948 122.917 154.956 124.805 C 154.962 126.341,155.018 126.596,155.257 126.172 C 156.683 123.638,159.189 122.093,161.665 122.221 L 162.524 122.266 162.656 125.130 M176.302 122.714 C 177.607 123.119,178.997 124.050,179.773 125.041 L 180.443 125.898 180.289 124.407 L 180.135 122.917 182.876 122.917 L 185.616 122.917 185.808 133.955 C 185.914 140.025,185.954 145.132,185.897 145.303 C 185.825 145.519,184.952 145.614,183.066 145.611 L 180.339 145.608 180.350 144.287 L 180.361 142.966 179.308 143.981 C 174.653 148.467,166.439 145.642,164.298 138.818 C 161.358 129.445,168.236 120.217,176.302 122.714 M256.974 125.139 L 257.047 128.013 255.281 127.922 C 252.812 127.796,251.466 128.497,250.391 130.469 L 249.609 131.901 249.479 138.786 L 249.349 145.672 246.549 145.700 L 243.750 145.728 243.750 134.323 L 243.750 122.917 246.597 122.917 L 249.445 122.917 249.397 124.761 C 249.362 126.108,249.419 126.479,249.609 126.137 C 250.846 123.918,253.864 122.056,255.990 122.203 L 256.901 122.266 256.974 125.139 M308.649 122.801 C 309.319 123.029,310.401 123.686,311.053 124.260 L 312.240 125.305 312.240 124.111 L 312.240 122.917 314.813 122.917 L 317.387 122.917 317.580 133.481 C 317.843 147.864,317.767 148.698,315.941 151.414 C 311.521 157.989,300.756 157.422,297.255 150.430 L 296.323 148.568 297.315 148.387 C 298.787 148.120,302.083 148.141,302.083 148.418 C 302.083 148.935,303.548 150.359,304.547 150.813 C 308.418 152.571,312.240 149.753,312.240 145.140 L 312.240 143.123 311.263 144.059 C 308.108 147.082,302.112 146.620,299.028 143.117 C 291.212 134.237,298.298 119.274,308.649 122.801 M333.807 122.399 C 339.590 123.150,343.617 128.306,343.181 134.401 L 343.099 135.547 335.091 135.547 L 327.083 135.547 327.089 136.198 C 327.131 140.920,333.949 143.156,336.926 139.424 L 337.630 138.542 340.187 138.542 C 343.083 138.542,343.002 138.432,341.882 140.815 C 338.286 148.471,325.455 147.745,322.406 139.714 C 319.232 131.353,323.433 123.484,331.771 122.172 C 331.842 122.161,332.759 122.263,333.807 122.399 M265.418 133.203 C 265.447 138.861,265.476 143.968,265.483 144.552 L 265.495 145.615 262.803 145.615 C 261.322 145.615,260.079 145.576,260.039 145.529 C 260.000 145.481,259.890 140.374,259.796 134.180 L 259.623 122.917 262.494 122.917 L 265.365 122.917 265.418 133.203 M329.924 127.689 C 328.807 128.279,327.615 129.819,327.218 131.185 L 327.048 131.771 332.292 131.771 L 337.535 131.771 337.354 131.185 C 336.296 127.755,332.860 126.139,329.924 127.689 M172.688 128.154 C 169.139 129.957,168.372 136.468,171.388 139.193 C 175.443 142.856,180.929 139.429,180.397 133.566 C 179.994 129.120,176.129 126.407,172.688 128.154 M198.021 128.451 C 194.034 131.135,194.410 138.489,198.624 140.271 C 202.438 141.883,205.990 139.001,205.990 134.295 C 205.990 129.089,201.721 125.959,198.021 128.451 M278.727 128.111 C 274.542 130.011,274.334 137.940,278.413 140.039 C 283.104 142.453,287.721 137.679,286.070 132.121 C 284.972 128.422,281.825 126.704,278.727 128.111 M304.618 128.131 C 302.668 129.189,301.542 131.463,301.528 134.369 C 301.497 140.729,308.921 143.106,311.615 137.599 C 314.307 132.097,309.441 125.513,304.618 128.131 M221.875 135.807 L 221.875 140.365 225.474 140.365 C 231.729 140.365,234.048 138.830,233.483 135.063 C 233.018 131.963,231.638 131.264,225.977 131.256 L 221.875 131.250 221.875 135.807 " stroke="none" fill="#fbfbfb" fill-rule="evenodd"></path><path id="path2" d="M66.536 96.364 C 46.431 99.493,34.212 121.323,40.814 142.315 C 49.547 170.083,85.716 173.183,98.569 147.266 C 110.935 122.332,92.090 92.388,66.536 96.364 M78.494 105.887 C 79.074 106.110,79.101 105.930,77.060 115.418 C 76.045 120.137,75.260 124.045,75.317 124.101 C 75.373 124.158,77.405 124.327,79.832 124.478 C 86.274 124.877,87.240 125.305,87.240 127.755 C 87.240 128.812,87.099 129.027,84.831 131.445 C 62.894 154.827,62.572 155.148,62.156 154.063 C 62.079 153.862,62.894 149.749,63.969 144.923 C 65.043 140.096,65.866 136.092,65.799 136.024 C 65.731 135.957,63.526 135.744,60.898 135.552 C 52.935 134.970,51.604 133.401,55.525 129.218 C 69.086 114.748,77.701 105.729,77.963 105.729 C 78.029 105.729,78.268 105.800,78.494 105.887 " stroke="none" fill="#4b9afc" fill-rule="evenodd"></path><path id="path3" d="M207.366 111.911 C 208.195 111.963,209.484 111.963,210.231 111.910 C 210.978 111.858,210.299 111.816,208.724 111.816 C 207.148 111.817,206.537 111.860,207.366 111.911 M288.086 111.910 C 288.766 111.964,289.880 111.964,290.560 111.910 C 291.240 111.857,290.684 111.813,289.323 111.813 C 287.962 111.813,287.406 111.857,288.086 111.910 M205.835 119.401 C 205.835 121.693,205.875 122.595,205.923 121.407 C 205.971 120.218,205.971 118.343,205.923 117.240 C 205.874 116.137,205.834 117.109,205.835 119.401 M286.290 122.526 C 286.290 123.815,286.334 124.375,286.388 123.771 C 286.443 123.166,286.443 122.112,286.390 121.427 C 286.336 120.742,286.291 121.237,286.290 122.526 M199.023 122.315 C 199.274 122.380,199.684 122.380,199.935 122.315 C 200.186 122.249,199.980 122.196,199.479 122.196 C 198.978 122.196,198.773 122.249,199.023 122.315 M279.105 122.320 C 279.429 122.382,279.897 122.380,280.146 122.314 C 280.395 122.249,280.130 122.198,279.557 122.201 C 278.984 122.204,278.781 122.257,279.105 122.320 M305.146 122.320 C 305.470 122.382,305.939 122.380,306.188 122.314 C 306.437 122.249,306.172 122.198,305.599 122.201 C 305.026 122.204,304.822 122.257,305.146 122.320 M265.188 124.479 C 265.188 125.410,265.235 125.791,265.293 125.326 C 265.350 124.860,265.350 124.098,265.293 123.633 C 265.235 123.167,265.188 123.548,265.188 124.479 M180.274 124.089 C 180.277 124.661,180.330 124.865,180.393 124.541 C 180.455 124.217,180.452 123.749,180.387 123.500 C 180.322 123.251,180.271 123.516,180.274 124.089 M249.297 125.000 C 249.297 125.788,249.346 126.110,249.405 125.716 C 249.465 125.322,249.465 124.678,249.405 124.284 C 249.346 123.890,249.297 124.212,249.297 125.000 M162.578 126.302 C 162.578 127.090,162.627 127.412,162.687 127.018 C 162.746 126.624,162.746 125.980,162.687 125.586 C 162.627 125.192,162.578 125.514,162.578 126.302 M259.728 128.776 C 259.727 130.065,259.771 130.625,259.826 130.021 C 259.880 129.416,259.881 128.362,259.827 127.677 C 259.773 126.992,259.729 127.487,259.728 128.776 M114.394 129.167 C 114.394 129.811,114.445 130.075,114.507 129.753 C 114.569 129.430,114.569 128.903,114.507 128.581 C 114.445 128.258,114.394 128.522,114.394 129.167 M291.774 133.724 C 291.775 136.302,291.814 137.322,291.861 135.989 C 291.908 134.657,291.908 132.548,291.860 131.302 C 291.813 130.056,291.774 131.146,291.774 133.724 M223.503 131.183 C 224.469 131.233,226.051 131.233,227.018 131.183 C 227.985 131.133,227.194 131.092,225.260 131.092 C 223.327 131.092,222.536 131.133,223.503 131.183 M206.055 134.245 C 206.058 134.818,206.111 135.021,206.174 134.697 C 206.236 134.374,206.234 133.905,206.169 133.656 C 206.103 133.407,206.052 133.672,206.055 134.245 M317.539 135.417 C 317.539 136.634,317.584 137.132,317.639 136.523 C 317.693 135.915,317.693 134.919,317.639 134.310 C 317.584 133.701,317.539 134.199,317.539 135.417 M185.788 139.583 C 185.788 142.806,185.826 144.124,185.871 142.513 C 185.917 140.902,185.917 138.265,185.871 136.654 C 185.826 135.042,185.788 136.361,185.788 139.583 M335.156 135.417 L 327.214 135.558 335.076 135.618 C 340.101 135.656,342.996 135.583,343.099 135.417 C 343.187 135.273,343.224 135.183,343.179 135.216 C 343.135 135.248,339.525 135.339,335.156 135.417 M249.278 140.538 C 249.234 144.242,249.135 145.563,248.893 145.661 C 248.638 145.764,248.640 145.797,248.901 145.813 C 249.450 145.847,249.495 145.375,249.414 140.356 L 249.336 135.547 249.278 140.538 M180.274 144.401 C 180.277 144.974,180.330 145.178,180.393 144.854 C 180.455 144.530,180.452 144.061,180.387 143.812 C 180.322 143.563,180.271 143.828,180.274 144.401 M265.358 144.584 C 265.289 145.258,265.329 145.713,265.447 145.595 C 265.564 145.477,265.621 144.926,265.572 144.370 L 265.484 143.359 265.358 144.584 M217.904 145.766 C 218.799 145.817,220.264 145.817,221.159 145.766 C 222.054 145.715,221.322 145.673,219.531 145.673 C 217.741 145.673,217.008 145.715,217.904 145.766 M298.242 148.357 C 298.493 148.422,298.903 148.422,299.154 148.357 C 299.404 148.291,299.199 148.238,298.698 148.238 C 298.197 148.238,297.992 148.291,298.242 148.357 " stroke="none" fill="#375170" fill-rule="evenodd"></path><path id="path4" d="M205.813 113.802 C 205.813 114.733,205.860 115.114,205.918 114.648 C 205.975 114.183,205.975 113.421,205.918 112.956 C 205.860 112.490,205.813 112.871,205.813 113.802 M211.317 122.917 C 211.317 128.861,211.351 131.292,211.393 128.320 C 211.435 125.348,211.435 120.485,211.393 117.513 C 211.351 114.541,211.317 116.973,211.317 122.917 M286.299 117.057 C 286.300 118.919,286.341 119.647,286.391 118.674 C 286.442 117.701,286.441 116.178,286.390 115.289 C 286.340 114.399,286.299 115.195,286.299 117.057 M238.342 120.573 C 238.342 121.074,238.395 121.279,238.461 121.029 C 238.526 120.778,238.526 120.368,238.461 120.117 C 238.395 119.867,238.342 120.072,238.342 120.573 M256.837 123.307 C 256.839 123.880,256.893 124.084,256.955 123.760 C 257.017 123.436,257.015 122.967,256.950 122.718 C 256.885 122.469,256.834 122.734,256.837 123.307 M259.723 124.740 C 259.723 125.814,259.769 126.253,259.825 125.716 C 259.881 125.179,259.881 124.300,259.825 123.763 C 259.769 123.226,259.723 123.665,259.723 124.740 M243.862 129.297 C 243.862 132.734,243.900 134.105,243.945 132.342 C 243.990 130.579,243.990 127.767,243.944 126.092 C 243.899 124.417,243.862 125.859,243.862 129.297 M339.063 124.561 C 339.063 124.605,339.443 124.986,339.909 125.407 L 340.755 126.172 339.990 125.326 C 339.277 124.537,339.063 124.359,339.063 124.561 M265.198 128.385 C 265.198 129.746,265.242 130.303,265.296 129.622 C 265.349 128.942,265.349 127.829,265.296 127.148 C 265.242 126.468,265.198 127.025,265.198 128.385 M306.576 127.523 C 306.826 127.589,307.236 127.589,307.487 127.523 C 307.738 127.458,307.533 127.404,307.031 127.404 C 306.530 127.404,306.325 127.458,306.576 127.523 M160.094 127.788 C 160.418 127.851,160.887 127.848,161.136 127.783 C 161.385 127.718,161.120 127.667,160.547 127.670 C 159.974 127.673,159.770 127.726,160.094 127.788 M254.492 127.784 C 254.743 127.849,255.153 127.849,255.404 127.784 C 255.654 127.718,255.449 127.665,254.948 127.665 C 254.447 127.665,254.242 127.718,254.492 127.784 M343.043 133.984 C 343.045 134.701,343.096 134.963,343.156 134.567 C 343.215 134.171,343.214 133.585,343.152 133.265 C 343.090 132.944,343.041 133.268,343.043 133.984 M321.432 134.375 C 321.432 135.163,321.481 135.485,321.541 135.091 C 321.600 134.697,321.600 134.053,321.541 133.659 C 321.481 133.265,321.432 133.587,321.432 134.375 M189.383 134.375 C 189.383 134.876,189.437 135.081,189.502 134.831 C 189.568 134.580,189.568 134.170,189.502 133.919 C 189.437 133.669,189.383 133.874,189.383 134.375 M317.544 140.104 C 317.544 141.608,317.587 142.223,317.640 141.471 C 317.693 140.719,317.693 139.489,317.640 138.737 C 317.587 137.985,317.544 138.600,317.544 140.104 M291.769 141.797 C 291.770 143.802,291.811 144.588,291.860 143.543 C 291.910 142.499,291.909 140.858,291.860 139.897 C 291.810 138.937,291.769 139.792,291.769 141.797 M223.513 140.558 C 224.486 140.608,226.010 140.608,226.899 140.557 C 227.788 140.506,226.992 140.465,225.130 140.466 C 223.268 140.466,222.541 140.508,223.513 140.558 M216.238 143.099 C 216.237 144.388,216.282 144.948,216.336 144.344 C 216.391 143.739,216.391 142.685,216.338 142.000 C 216.284 141.315,216.239 141.810,216.238 143.099 M286.191 144.218 L 286.317 145.443 286.405 144.432 C 286.454 143.876,286.398 143.325,286.280 143.207 C 286.162 143.089,286.122 143.544,286.191 144.218 M259.967 144.271 C 259.967 144.915,260.018 145.179,260.080 144.857 C 260.142 144.535,260.142 144.007,260.080 143.685 C 260.018 143.363,259.967 143.626,259.967 144.271 M312.300 144.271 C 312.300 144.772,312.354 144.977,312.419 144.727 C 312.485 144.476,312.485 144.066,312.419 143.815 C 312.354 143.564,312.300 143.770,312.300 144.271 M299.935 148.361 C 300.257 148.423,300.785 148.423,301.107 148.361 C 301.429 148.299,301.165 148.248,300.521 148.248 C 299.876 148.248,299.613 148.299,299.935 148.361 " stroke="none" fill="#7e7c7d" fill-rule="evenodd"></path></g></svg>